<?xml version="1.0" ?><svg data-name="Layer 2" id="Layer_2" viewBox="0 0 32 32" xmlns="http://www.w3.org/2000/svg"><title/><path d="M18.82,18.8h0a.93.93,0,1,1,.94-.93A.93.93,0,0,1,18.81,18.8Z"/><path d="M13.21,15.07h0a.93.93,0,1,1,.94-.93A.93.93,0,0,1,13.21,15.07Z"/><path d="M5.84,10.36l4.35,8.94v0l4.95,10.17A.93.93,0,0,0,16,30h0a.93.93,0,0,0,.84-.52l9.33-19.12A3.26,3.26,0,0,0,26.7,4c-.85-.24-1.48-.48-2.1-.71s-1.15-.44-1.82-.62A25.31,25.31,0,0,0,16,2c-5.26,0-6.81.59-8.6,1.28-.61.23-1.25.48-2.09.72a3.26,3.26,0,0,0,.55,6.37Zm0-4.58c.92-.26,1.62-.53,2.24-.77,1.68-.64,3-1.15,7.93-1.15a22.42,22.42,0,0,1,6.31.59c.59.16,1.09.35,1.66.57s1.32.5,2.24.76a1.41,1.41,0,0,1,1,1.34,1.37,1.37,0,0,1-.46,1,1.39,1.39,0,0,1-1.08.36h0a.9.9,0,0,0-.2,0l-.16,0a.92.92,0,0,0-.16.08.5.5,0,0,0-.26.22.91.91,0,0,0-.12.15l0,0L16,26.95l-3.82-7.84a1.88,1.88,0,0,1,1-.31h.1A1.85,1.85,0,0,1,15,20.66a1.88,1.88,0,0,1-.34,1.07.93.93,0,1,0,1.53,1.06,3.73,3.73,0,0,0-2.81-5.86h-.25a3.7,3.7,0,0,0-1.82.5L7.76,10l.75-.28c.3-.12.6-.24.94-.35,0,0,0,0,0,0a2.8,2.8,0,1,0,5.5-.74h1a21.54,21.54,0,0,1,6.29.61.93.93,0,1,0,.53-1.79A22.9,22.9,0,0,0,16,6.85c-5.16,0-6.68.6-8.15,1.18-.38.15-.77.3-1.24.44l-.22,0-.18,0a1.4,1.4,0,0,1-.39-2.74Zm7.11,3a1,1,0,0,1,.26.65.93.93,0,0,1-1.87,0A.9.9,0,0,1,11.49,9C11.9,8.89,12.37,8.84,12.92,8.81Z"/><path d="M18.79,10.39a2.8,2.8,0,1,0,2.8,2.8A2.8,2.8,0,0,0,18.79,10.39Zm0,3.73a.93.93,0,1,1,.93-.93A.93.93,0,0,1,18.79,14.13Z"/></svg>