<?xml version="1.0" ?><svg id="Layer_1" style="enable-background:new 0 0 128 128;" version="1.1" viewBox="0 0 128 128" xml:space="preserve" xmlns="http://www.w3.org/2000/svg" xmlns:xlink="http://www.w3.org/1999/xlink"><g><path d="M105.727,23.276c-0.188-0.188-0.442-0.293-0.707-0.293c-0.001,0-0.001,0-0.001,0c-0.266,0-0.52,0.105-0.707,0.293   l-5.57,5.571L70.307,57.281c-0.286,0.286-0.372,0.716-0.217,1.09c0.154,0.374,0.52,0.617,0.924,0.617h40.218h7.875   c0.553,0,1-0.448,1-1C120.106,44.898,115,32.57,105.727,23.276z M99.431,30.985c0.117,0.123,0.236,0.245,0.351,0.369   c0.195,0.21,0.388,0.421,0.577,0.635c0.229,0.258,0.454,0.52,0.676,0.783c0.183,0.218,0.366,0.436,0.544,0.657   c0.217,0.268,0.427,0.541,0.636,0.814c0.171,0.223,0.342,0.446,0.507,0.672c0.205,0.28,0.402,0.565,0.599,0.85   c0.157,0.227,0.315,0.453,0.467,0.682c0.194,0.293,0.379,0.591,0.564,0.889c0.142,0.229,0.288,0.456,0.425,0.687   c0.186,0.312,0.361,0.63,0.537,0.947c0.124,0.223,0.253,0.443,0.372,0.668c0.186,0.349,0.359,0.704,0.534,1.059   c0.098,0.199,0.202,0.395,0.296,0.595c0.239,0.506,0.464,1.018,0.68,1.534c0.044,0.104,0.087,0.209,0.13,0.314   c0.21,0.514,0.412,1.032,0.6,1.555c0.076,0.212,0.142,0.427,0.215,0.64c0.126,0.371,0.253,0.741,0.368,1.115   c0.076,0.248,0.142,0.499,0.213,0.748c0.098,0.344,0.197,0.688,0.286,1.035c0.068,0.266,0.127,0.535,0.189,0.803   c0.078,0.335,0.157,0.67,0.226,1.007c0.057,0.277,0.106,0.556,0.157,0.835c0.061,0.333,0.121,0.666,0.173,1.001   c0.044,0.283,0.082,0.568,0.12,0.853c0.045,0.334,0.087,0.669,0.123,1.005c0.031,0.288,0.057,0.577,0.081,0.867   c0.029,0.337,0.054,0.674,0.074,1.013c0.017,0.291,0.031,0.582,0.042,0.873c0.006,0.166,0.008,0.333,0.012,0.499H73.428   L99.431,30.985z M112.22,56.988c-0.005-0.19-0.019-0.377-0.026-0.566c-0.011-0.299-0.024-0.599-0.042-0.897   c-0.021-0.365-0.049-0.729-0.08-1.092c-0.025-0.296-0.051-0.592-0.082-0.886c-0.039-0.363-0.085-0.725-0.133-1.086   c-0.039-0.291-0.077-0.581-0.121-0.871c-0.056-0.363-0.122-0.724-0.188-1.085c-0.052-0.283-0.101-0.567-0.158-0.848   c-0.075-0.368-0.161-0.732-0.246-1.097c-0.063-0.27-0.122-0.541-0.19-0.809c-0.097-0.379-0.205-0.755-0.313-1.131   c-0.071-0.249-0.137-0.5-0.213-0.748c-0.126-0.413-0.267-0.821-0.406-1.229c-0.07-0.206-0.134-0.414-0.207-0.618   c-0.217-0.605-0.448-1.205-0.694-1.798c-0.003-0.008-0.006-0.016-0.01-0.024c-0.247-0.596-0.51-1.186-0.785-1.77   c-0.092-0.195-0.194-0.386-0.289-0.58c-0.191-0.389-0.381-0.778-0.585-1.161c-0.12-0.226-0.25-0.448-0.374-0.672   c-0.192-0.345-0.382-0.69-0.584-1.029c-0.14-0.235-0.288-0.466-0.433-0.699c-0.2-0.321-0.399-0.643-0.608-0.959   c-0.156-0.236-0.319-0.467-0.48-0.7c-0.212-0.307-0.424-0.613-0.645-0.914c-0.169-0.231-0.345-0.459-0.519-0.687   c-0.226-0.295-0.453-0.589-0.687-0.879c-0.182-0.225-0.369-0.448-0.556-0.67c-0.24-0.285-0.483-0.567-0.731-0.846   c-0.194-0.218-0.391-0.433-0.589-0.647c-0.132-0.142-0.257-0.289-0.391-0.429l4.156-4.157c8.222,8.587,12.839,19.732,13.085,31.583   H112.22z"/><path d="M103.289,47.688c-2.536,0-4.599,2.063-4.599,4.598s2.063,4.598,4.599,4.598c2.535,0,4.598-2.063,4.598-4.598   S105.824,47.688,103.289,47.688z M103.289,54.885c-1.433,0-2.599-1.166-2.599-2.598s1.166-2.598,2.599-2.598   s2.598,1.166,2.598,2.598S104.722,54.885,103.289,54.885z"/><path d="M105.079,63h-7.875H59.4l32.299-32.298c0.188-0.188,0.293-0.442,0.293-0.708c0-0.266-0.105-0.52-0.294-0.708   c-9.294-9.272-21.621-14.379-34.712-14.379C29.916,14.907,7.894,36.93,7.894,64s22.022,49.093,49.093,49.093   S106.079,91.07,106.079,64C106.079,63.448,105.632,63,105.079,63z M56.279,63.293c-0.286,0.286-0.372,0.716-0.217,1.09   C56.217,64.756,56.582,65,56.986,65h39.205c-0.531,21.165-17.914,38.218-39.205,38.218c-21.625,0-39.218-17.593-39.218-39.218   s17.593-39.218,39.218-39.218c10.138,0,19.69,3.825,27.012,10.792L56.279,63.293z M56.986,111.093   C31.02,111.093,9.894,89.967,9.894,64S31.02,16.907,56.986,16.907c12.224,0,23.755,4.643,32.584,13.096l-4.166,4.166   c-7.699-7.344-17.746-11.387-28.418-11.387c-22.728,0-41.218,18.49-41.218,41.218s18.49,41.218,41.218,41.218   c22.392,0,40.658-17.952,41.192-40.218h5.89C103.534,90.507,82.619,111.093,56.986,111.093z"/><path d="M40.612,45.974c3.399,0,6.165-2.766,6.165-6.165c0-3.399-2.766-6.165-6.165-6.165s-6.165,2.766-6.165,6.165   C34.447,43.208,37.213,45.974,40.612,45.974z M40.612,35.645c2.297,0,4.165,1.869,4.165,4.165s-1.868,4.165-4.165,4.165   s-4.165-1.868-4.165-4.165S38.315,35.645,40.612,35.645z"/><path d="M86.72,46.412c-2.535,0-4.598,2.063-4.598,4.598s2.063,4.598,4.598,4.598c2.536,0,4.599-2.063,4.599-4.598   S89.256,46.412,86.72,46.412z M86.72,53.608c-1.433,0-2.598-1.166-2.598-2.598s1.165-2.598,2.598-2.598s2.599,1.166,2.599,2.598   S88.152,53.608,86.72,53.608z"/><path d="M39.919,58.709c0.194,0.186,0.444,0.279,0.693,0.279c0.263,0,0.524-0.103,0.721-0.307c0.383-0.398,0.37-1.031-0.027-1.414   l-8.589-8.255c-0.399-0.382-1.031-0.369-1.414,0.028c-0.383,0.398-0.37,1.031,0.027,1.414L39.919,58.709z"/><path d="M53.402,71.68c-0.501-0.238-1.096-0.024-1.332,0.475l-4.295,9.053c-0.237,0.499-0.024,1.096,0.475,1.332   c0.139,0.066,0.284,0.097,0.428,0.097c0.374,0,0.733-0.211,0.904-0.571l4.295-9.053C54.114,72.513,53.901,71.917,53.402,71.68z"/><path d="M31.787,59.773c0-3.047-2.479-5.527-5.527-5.527c-3.047,0-5.526,2.479-5.526,5.527s2.479,5.526,5.526,5.526   C29.308,65.299,31.787,62.82,31.787,59.773z M22.733,59.773c0-1.945,1.582-3.527,3.526-3.527c1.945,0,3.527,1.582,3.527,3.527   c0,1.944-1.582,3.526-3.527,3.526C24.315,63.299,22.733,61.717,22.733,59.773z"/><path d="M31.82,73.949c-3.303,0-5.99,2.688-5.99,5.991c0,3.303,2.688,5.991,5.99,5.991c3.304,0,5.991-2.688,5.991-5.991   C37.812,76.636,35.124,73.949,31.82,73.949z M31.82,83.931c-2.2,0-3.99-1.79-3.99-3.991s1.79-3.991,3.99-3.991   c2.201,0,3.991,1.791,3.991,3.991S34.021,83.931,31.82,83.931z"/><path d="M61.753,99.92c3.752,0,6.804-3.052,6.804-6.803s-3.052-6.804-6.804-6.804s-6.804,3.052-6.804,6.804   S58.001,99.92,61.753,99.92z M61.753,88.313c2.648,0,4.804,2.155,4.804,4.804c0,2.648-2.155,4.803-4.804,4.803   s-4.804-2.155-4.804-4.803C56.949,90.468,59.104,88.313,61.753,88.313z"/><path d="M55.419,32.171c-0.468,0.293-0.61,0.91-0.317,1.378l3.626,5.803c0.189,0.304,0.516,0.47,0.849,0.47   c0.181,0,0.364-0.049,0.529-0.152c0.468-0.293,0.61-0.91,0.317-1.378l-3.626-5.803C56.505,32.021,55.888,31.878,55.419,32.171z"/><path d="M69.961,80.369c3.047,0,5.526-2.479,5.526-5.527s-2.479-5.526-5.526-5.526s-5.526,2.479-5.526,5.526   S66.914,80.369,69.961,80.369z M69.961,71.316c1.944,0,3.526,1.582,3.526,3.526c0,1.945-1.582,3.527-3.526,3.527   s-3.526-1.582-3.526-3.527C66.435,72.898,68.017,71.316,69.961,71.316z"/><path d="M91.771,43.01c-0.42-0.356-1.051-0.309-1.41,0.113c-0.357,0.42-0.308,1.052,0.113,1.41l4.274,3.641   c0.188,0.16,0.419,0.239,0.648,0.239c0.282,0,0.563-0.119,0.762-0.352c0.357-0.42,0.308-1.052-0.113-1.41L91.771,43.01z"/><path d="M102.083,38.823c0-2.12-1.725-3.844-3.844-3.844s-3.843,1.724-3.843,3.844s1.724,3.844,3.843,3.844   S102.083,40.942,102.083,38.823z M98.239,40.667c-1.017,0-1.843-0.827-1.843-1.844s0.826-1.844,1.843-1.844   s1.844,0.827,1.844,1.844S99.256,40.667,98.239,40.667z"/><path d="M50.857,47.895c-3.271,0-5.933,2.661-5.933,5.933s2.661,5.933,5.933,5.933s5.933-2.661,5.933-5.933   S54.129,47.895,50.857,47.895z M50.857,57.76c-2.168,0-3.933-1.764-3.933-3.933s1.765-3.933,3.933-3.933s3.933,1.764,3.933,3.933   S53.025,57.76,50.857,57.76z"/><path d="M71.014,42.898c3.271,0,5.933-2.661,5.933-5.933s-2.661-5.933-5.933-5.933s-5.933,2.662-5.933,5.933   S67.742,42.898,71.014,42.898z M71.014,33.033c2.168,0,3.933,1.764,3.933,3.933c0,2.168-1.765,3.933-3.933,3.933   s-3.933-1.764-3.933-3.933C67.081,34.797,68.846,33.033,71.014,33.033z"/><path d="M81.37,80.93c-0.391,0.391-0.391,1.023,0,1.414l4.643,4.643c0.195,0.195,0.451,0.293,0.707,0.293s0.512-0.098,0.707-0.293   c0.391-0.391,0.391-1.023,0-1.414l-4.643-4.643C82.394,80.539,81.761,80.539,81.37,80.93z"/><path d="M83.691,72.87c0.195,0.195,0.451,0.293,0.707,0.293s0.512-0.098,0.707-0.293c0.391-0.391,0.391-1.023,0-1.414l-4.7-4.701   c-0.391-0.391-1.023-0.391-1.414,0s-0.391,1.023,0,1.414L83.691,72.87z"/><path d="M39.578,89.881c-0.391-0.391-1.023-0.391-1.414,0s-0.391,1.023,0,1.414l7.022,7.022c0.195,0.195,0.451,0.293,0.707,0.293   s0.512-0.098,0.707-0.293c0.391-0.391,0.391-1.023,0-1.414L39.578,89.881z"/></g></svg>